{"asset":{"version":"2.0","generator":"Blockbench 4.6.5 glTF exporter"},"scenes":[{"nodes":[6],"name":"blockbench_export"}],"scene":0,"nodes":[{"name":"body","mesh":0},{"name":"arms","mesh":1},{"name":"arms","children":[1]},{"translation":[-4.625929269271485e-18,0.21875,-4.625929269271485e-18],"name":"head","mesh":2},{"translation":[0,1.5,0],"name":"head","children":[3]},{"name":"body","children":[0,2,4]},{"children":[5]}],"bufferViews":[{"buffer":0,"byteOffset":0,"byteLength":1200,"target":34962,"byteStride":12},{"buffer":0,"byteOffset":1200,"byteLength":1200,"target":34962,"byteStride":12},{"buffer":0,"byteOffset":2400,"byteLength":800,"target":34962,"byteStride":8},{"buffer":0,"byteOffset":3200,"byteLength":240,"target":34963},{"buffer":0,"byteOffset":3440,"byteLength":600,"target":34962,"byteStride":12},{"buffer":0,"byteOffset":4040,"byteLength":600,"target":34962,"byteStride":12},{"buffer":0,"byteOffset":4640,"byteLength":400,"target":34962,"byteStride":8},{"buffer":0,"byteOffset":5040,"byteLength":120,"target":34963},{"buffer":0,"byteOffset":5160,"byteLength":600,"target":34962,"byteStride":12},{"buffer":0,"byteOffset":5760,"byteLength":600,"target":34962,"byteStride":12},{"buffer":0,"byteOffset":6360,"byteLength":400,"target":34962,"byteStride":8},{"buffer":0,"byteOffset":6760,"byteLength":120,"target":34963},{"buffer":0,"byteOffset":6880,"byteLength":12},{"buffer":0,"byteOffset":6892,"byteLength":48},{"buffer":0,"byteOffset":6940,"byteLength":12},{"buffer":0,"byteOffset":6952,"byteLength":48},{"buffer":0,"byteOffset":7000,"byteLength":52},{"buffer":0,"byteOffset":7052,"byteLength":208},{"buffer":0,"byteOffset":7260,"byteLength":52},{"buffer":0,"byteOffset":7312,"byteLength":208}],"buffers":[{"byteLength":7520,"uri":"data:application/octet-stream;base64,"}],"accessors":[{"bufferView":0,"componentType":5126,"count":100,"max":[0.3344463109970093,1.75,0.1875],"min":[-0.3344463109970093,0,-0.21700850129127502],"type":"VEC3"},{"bufferView":1,"componentType":5126,"count":100,"max":[0.9510565400123596,1,1],"min":[-0.9510565400123596,-1,-0.9078058004379272],"type":"VEC3"},{"bufferView":2,"componentType":5126,"count":100,"max":[0.6582026481628418,0.626953125],"min":[0.40625,0.005859375],"type":"VEC2"},{"bufferView":3,"componentType":5123,"count":120,"max":[99],"min":[0],"type":"SCALAR"},{"bufferView":4,"componentType":5126,"count":50,"max":[0.6875,1.3234732151031494,0.0625],"min":[-0.6875,1.1765267848968506,-0.07725425064563751],"type":"VEC3"},{"bufferView":5,"componentType":5126,"count":50,"max":[1,0.9510565400123596,1],"min":[-1,-0.9510565400123596,-0.80901700258255],"type":"VEC3"},{"bufferView":6,"componentType":5126,"count":50,"max":[0.5761711597442627,0.37109375],"min":[0.427734375,0.08984375],"type":"VEC2"},{"bufferView":7,"componentType":5123,"count":60,"max":[49],"min":[0],"type":"SCALAR"},{"bufferView":8,"componentType":5126,"count":50,"max":[0.14694631099700928,0.21875,0.125],"min":[-0.14694631099700928,-0.21875,-0.15450850129127502],"type":"VEC3"},{"bufferView":9,"componentType":5126,"count":50,"max":[0.9510565400123596,1,1],"min":[-0.9510565400123596,-1,-0.80901700258255],"type":"VEC3"},{"bufferView":10,"componentType":5126,"count":50,"max":[0.6230437755584717,0.904296875],"min":[0.431640625,0.66796875],"type":"VEC2"},{"bufferView":11,"componentType":5123,"count":60,"max":[49],"min":[0],"type":"SCALAR"},{"bufferView":12,"componentType":5126,"count":3,"max":[2],"min":[0],"type":"SCALAR"},{"bufferView":13,"componentType":5126,"count":3,"max":[0,0.04361938685178757,0,0.9990482330322266],"min":[0,-0.06540312618017197,0,0.9978589415550232],"type":"VEC4"},{"bufferView":14,"componentType":5126,"count":3,"max":[0.6666666865348816],"min":[0],"type":"SCALAR"},{"bufferView":15,"componentType":5126,"count":3,"max":[0,0,0,1],"min":[0,0,0,1],"type":"VEC4"},{"bufferView":16,"componentType":5126,"count":13,"max":[0.6666666865348816],"min":[0],"type":"SCALAR"},{"bufferView":17,"componentType":5126,"count":13,"max":[0.1736481785774231,0,0,1],"min":[-0.07557018101215363,0,0,0.9848077297210693],"type":"VEC4"},{"bufferView":18,"componentType":5126,"count":13,"max":[0.6666666865348816],"min":[0],"type":"SCALAR"},{"bufferView":19,"componentType":5126,"count":13,"max":[0.1736481785774231,0,0,1],"min":[-0.07557018101215363,0,0,0.9848077297210693],"type":"VEC4"}],"materials":[{"pbrMetallicRoughness":{"metallicFactor":0,"roughnessFactor":1,"baseColorTexture":{"index":0}},"alphaMode":"MASK","alphaCutoff":0.05,"doubleSided":true}],"textures":[{"sampler":0,"source":0,"name":"scarecrow.png"}],"samplers":[{"magFilter":9728,"minFilter":9728,"wrapS":33071,"wrapT":33071}],"images":[{"mimeType":"image/png","uri":"data:image/png;base64,"}],"meshes":[{"primitives":[{"mode":4,"attributes":{"POSITION":0,"NORMAL":1,"TEXCOORD_0":2},"indices":3,"material":0}]},{"primitives":[{"mode":4,"attributes":{"POSITION":4,"NORMAL":5,"TEXCOORD_0":6},"indices":7,"material":0}]},{"primitives":[{"mode":4,"attributes":{"POSITION":8,"NORMAL":9,"TEXCOORD_0":10},"indices":11,"material":0}]}],"animations":[{"name":"idle","samplers":[{"input":12,"output":13,"interpolation":"LINEAR"}],"channels":[{"sampler":0,"target":{"node":2,"path":"rotation"}}]},{"name":"impact","samplers":[{"input":14,"output":15,"interpolation":"LINEAR"},{"input":16,"output":17,"interpolation":"LINEAR"},{"input":18,"output":19,"interpolation":"LINEAR"}],"channels":[{"sampler":0,"target":{"node":2,"path":"rotation"}},{"sampler":1,"target":{"node":4,"path":"rotation"}},{"sampler":2,"target":{"node":5,"path":"rotation"}}]}]}